<svg xmlns="http://www.w3.org/2000/svg" width="14" height="14" fill="none" viewBox="0 0 14 14"><path fill="#0a0f13" d="M12.58.92a2.859 2.859 0 0 1-1.637 4.855c-1.34.18-2.967.085-3.923 1.04-.956.957-.86 2.583-1.041 3.923A2.86 2.86 0 1 1 2.762 7.52C4.1 7.34 5.726 7.434 6.682 6.478s.861-2.582 1.042-3.922A2.859 2.859 0 0 1 12.58.92"/><path fill="#0a0f13" d="M12.58 12.375a2.86 2.86 0 0 1-4.855-1.637c-.18-1.34-.086-2.966-1.042-3.922s-2.582-.861-3.922-1.042a2.859 2.859 0 1 1 3.217-3.217c.181 1.34.086 2.966 1.042 3.922s2.582.86 3.922 1.041a2.859 2.859 0 0 1 1.637 4.855"/></svg>